<?xml version="1.0" encoding="UTF-8"?>
<svg version="1.1" xmlns="http://www.w3.org/2000/svg" width="512" height="512">
<path d="M0 0 C1.04515962 -0.00384115 2.09031925 -0.00768229 3.16715038 -0.01163983 C4.91063831 -0.01034011 4.91063831 -0.01034011 6.68934822 -0.00901413 C8.52505337 -0.01347081 8.52505337 -0.01347081 10.39784348 -0.01801753 C13.81027986 -0.02522128 17.22266592 -0.02787866 20.63510633 -0.028615 C24.30935119 -0.03046067 27.98358503 -0.03800552 31.65782356 -0.04475021 C39.69903013 -0.05835401 47.74023173 -0.06436142 55.78144789 -0.06876087 C60.79856122 -0.07151982 65.81567262 -0.07575652 70.83278465 -0.08026505 C84.71260329 -0.09246034 98.59242038 -0.10275917 112.47224426 -0.10614014 C113.36123783 -0.1063597 114.2502314 -0.10657927 115.16616417 -0.10680549 C116.05733409 -0.10702377 116.948504 -0.10724204 117.86667907 -0.10746694 C119.67265058 -0.10791041 121.47862208 -0.10835697 123.28459358 -0.10880661 C124.18042558 -0.10902804 125.07625758 -0.10924947 125.999236 -0.10947761 C140.52098732 -0.11342718 155.0426885 -0.13088487 169.56442045 -0.15416613 C184.45916205 -0.17785346 199.35387847 -0.19034079 214.24863923 -0.19150805 C222.61736029 -0.19242629 230.98601604 -0.19821578 239.35471916 -0.21632767 C246.47985925 -0.23169338 253.60491386 -0.2368701 260.73006736 -0.22858956 C264.36788906 -0.22467047 268.00553843 -0.22567351 271.64333916 -0.23964691 C275.58127694 -0.25463536 279.51896937 -0.24655664 283.45692635 -0.23606491 C284.61479019 -0.24412132 285.77265404 -0.25217772 286.96560466 -0.26047826 C288.54116734 -0.25059349 288.54116734 -0.25059349 290.14855957 -0.24050903 C291.05820713 -0.24110612 291.96785469 -0.24170321 292.90506732 -0.24231839 C295.68164876 0.20984388 296.53087228 0.90324042 298.20012093 3.13142776 C301.61556871 13.3777711 299.43544307 26.71370414 294.95012093 36.31892776 C290.6884607 44.2352094 285.25447764 49.95716985 277.20012093 54.13142776 C275.53907846 54.49174266 273.87259927 54.8285993 272.20012093 55.13142776 C272.20456215 55.96842209 272.20900337 56.80541641 272.21357918 57.6677742 C272.25400926 65.63830424 272.28428214 73.60879879 272.30374527 81.57940865 C272.31408848 85.67508138 272.32806963 89.7706679 272.35099983 93.86629105 C272.59417235 138.50697705 266.92760365 176.33552037 234.73967171 209.64265823 C220.27885947 224.22099823 201.98687721 234.65575684 182.51481819 240.9663887 C177.15445495 242.79820988 173.77546479 245.55359236 170.82512093 250.38142776 C169.68677618 255.39014463 170.49503159 260.06316573 172.13762093 264.88142776 C176.77271663 269.93789581 183.58932224 271.94460009 189.90934944 274.21101761 C222.50779162 285.91822223 246.62613461 310.7282452 261.60246468 341.53377151 C269.98715502 360.41470013 272.38037166 379.90355892 272.49528694 400.35847855 C272.50693042 401.80128565 272.52757153 403.24404575 272.55681038 404.68660355 C272.59944757 406.80131307 272.61563111 408.91477985 272.62590218 411.02986526 C272.64777596 412.89650833 272.64777596 412.89650833 272.67009163 414.80086136 C272.11070857 418.76507105 271.07906472 420.38810128 268.20012093 423.13142776 C266.88012093 423.46142776 265.56012093 423.79142776 264.20012093 424.13142776 C264.20012093 429.08142776 264.20012093 434.03142776 264.20012093 439.13142776 C265.85012093 439.46142776 267.50012093 439.79142776 269.20012093 440.13142776 C272.25975128 443.81493069 272.54226093 446.75318086 272.38762093 451.44392776 C272.36055061 452.51256058 272.3334803 453.58119339 272.30558968 454.68220901 C272.25338264 455.8945723 272.25338264 455.8945723 272.20012093 457.13142776 C272.91426155 457.22552933 273.62840218 457.31963089 274.36418343 457.41658401 C282.78104495 459.53818961 289.30158795 466.60333678 293.83293343 473.68220901 C298.29501044 481.67570127 299.33910628 489.67172915 299.45012093 498.75642776 C299.47590218 500.02744339 299.50168343 501.29845901 299.52824593 502.60799026 C299.15421288 506.62439269 298.069684 509.26186469 295.20012093 512.13142776 C293.60267261 512.23117318 292.00079971 512.26066149 290.40024185 512.26285553 C289.35508223 512.26669667 288.3099226 512.27053782 287.23309147 512.27449536 C286.07076619 512.27362888 284.9084409 512.2727624 283.71089363 512.27186966 C281.87518848 512.27632634 281.87518848 512.27632634 280.00239837 512.28087306 C276.58996199 512.28807681 273.17757593 512.29073419 269.76513553 512.29147053 C266.09089066 512.2933162 262.41665682 512.30086105 258.74241829 512.30760574 C250.70121172 512.32120954 242.66001013 512.32721695 234.61879396 512.3316164 C229.60168063 512.33437535 224.58456923 512.33861205 219.5674572 512.34312057 C205.68763856 512.35531587 191.80782147 512.3656147 177.92799759 512.36899567 C176.59450724 512.36932502 176.59450724 512.36932502 175.23407768 512.36966102 C174.34290777 512.3698793 173.45173785 512.37009757 172.53356278 512.37032247 C170.72759128 512.37076594 168.92161977 512.3712125 167.11564827 512.37166214 C166.21981627 512.37188357 165.32398427 512.372105 164.40100585 512.37233314 C149.87925453 512.37628271 135.35755335 512.3937404 120.83582141 512.41702166 C105.9410798 512.44070899 91.04636338 512.45319632 76.15160263 512.45436358 C67.78288156 512.45528182 59.41422581 512.46107131 51.04552269 512.4791832 C43.9203826 512.49454891 36.79532799 512.49972563 29.67017449 512.49144509 C26.03235279 512.487526 22.39470342 512.48852904 18.75690269 512.50250244 C14.81896491 512.51749089 10.88127248 512.50941217 6.94331551 512.49892044 C5.78545166 512.50697685 4.62758782 512.51503325 3.43463719 512.52333379 C2.38426207 512.51674394 1.33388695 512.5101541 0.25168228 512.50336456 C-1.11278906 512.5042602 -1.11278906 512.5042602 -2.50482547 512.50517392 C-5.28140691 512.05301165 -6.13063043 511.35961511 -7.79987907 509.13142776 C-11.21532685 498.88508443 -9.03520122 485.54915139 -4.54987907 475.94392776 C-0.28821885 468.02764613 5.14576421 462.30568568 13.20012093 458.13142776 C14.86116339 457.77111287 16.52764258 457.43425623 18.20012093 457.13142776 C18.1956797 456.27968475 18.19123848 455.42794174 18.18666267 454.55038834 C18.1462651 446.44710117 18.11597571 438.34384876 18.09649658 430.24048328 C18.08614493 426.07640151 18.0721474 421.91240427 18.04924202 417.74837112 C18.02720093 413.715327 18.0154879 409.68236318 18.01036644 405.64926338 C18.00672585 404.12541251 17.99962075 402.60156506 17.98866081 401.07774925 C17.72749507 363.19255421 29.10767406 330.09636359 55.66057014 302.6201973 C70.12138238 288.0418573 88.41336464 277.60709869 107.88542366 271.29646683 C113.2457869 269.46464565 116.62477706 266.70926317 119.57512093 261.88142776 C120.71346567 256.8727109 119.90521026 252.1996898 118.26262093 247.38142776 C113.62752522 242.32495972 106.81091961 240.31825544 100.49089241 238.05183792 C67.89245023 226.3446333 43.77410724 201.53461033 28.79777718 170.72908401 C20.0205825 150.96430089 18.02731845 130.87275965 18.10246468 109.52595901 C18.10433401 107.94984355 18.10575547 106.3737275 18.1067524 104.79761124 C18.11053705 100.68612893 18.12033184 96.57468299 18.13145638 92.46321487 C18.14175849 88.2530148 18.14626871 84.04280874 18.1512928 79.83259964 C18.1619585 71.59885915 18.1789851 63.36514801 18.20012093 55.13142776 C17.09926155 54.83357376 15.99840218 54.53571976 14.86418343 54.22883987 C5.8816617 51.53851237 0.30732261 44.60044591 -4.42487907 36.84236526 C-8.2228694 29.35428207 -8.94837486 21.81285588 -9.04987907 13.50642776 C-9.07566032 12.23541214 -9.10144157 10.96439651 -9.12800407 9.65486526 C-8.51394149 3.06100276 -6.40321725 0.00877752 0 0 Z " fill="#DBF8FD" transform="translate(110.79987907409668,-0.13142776489257813)"/>
<path d="M0 0 C1.04515962 -0.00384115 2.09031925 -0.00768229 3.16715038 -0.01163983 C4.91063831 -0.01034011 4.91063831 -0.01034011 6.68934822 -0.00901413 C8.52505337 -0.01347081 8.52505337 -0.01347081 10.39784348 -0.01801753 C13.81027986 -0.02522128 17.22266592 -0.02787866 20.63510633 -0.028615 C24.30935119 -0.03046067 27.98358503 -0.03800552 31.65782356 -0.04475021 C39.69903013 -0.05835401 47.74023173 -0.06436142 55.78144789 -0.06876087 C60.79856122 -0.07151982 65.81567262 -0.07575652 70.83278465 -0.08026505 C84.71260329 -0.09246034 98.59242038 -0.10275917 112.47224426 -0.10614014 C113.36123783 -0.1063597 114.2502314 -0.10657927 115.16616417 -0.10680549 C116.05733409 -0.10702377 116.948504 -0.10724204 117.86667907 -0.10746694 C119.67265058 -0.10791041 121.47862208 -0.10835697 123.28459358 -0.10880661 C124.18042558 -0.10902804 125.07625758 -0.10924947 125.999236 -0.10947761 C140.52098732 -0.11342718 155.0426885 -0.13088487 169.56442045 -0.15416613 C184.45916205 -0.17785346 199.35387847 -0.19034079 214.24863923 -0.19150805 C222.61736029 -0.19242629 230.98601604 -0.19821578 239.35471916 -0.21632767 C246.47985925 -0.23169338 253.60491386 -0.2368701 260.73006736 -0.22858956 C264.36788906 -0.22467047 268.00553843 -0.22567351 271.64333916 -0.23964691 C275.58127694 -0.25463536 279.51896937 -0.24655664 283.45692635 -0.23606491 C284.61479019 -0.24412132 285.77265404 -0.25217772 286.96560466 -0.26047826 C288.54116734 -0.25059349 288.54116734 -0.25059349 290.14855957 -0.24050903 C291.05820713 -0.24110612 291.96785469 -0.24170321 292.90506732 -0.24231839 C295.68164876 0.20984388 296.53087228 0.90324042 298.20012093 3.13142776 C301.61556871 13.3777711 299.43544307 26.71370414 294.95012093 36.31892776 C290.6884607 44.2352094 285.25447764 49.95716985 277.20012093 54.13142776 C275.53907846 54.49174266 273.87259927 54.8285993 272.20012093 55.13142776 C272.20456215 55.96842209 272.20900337 56.80541641 272.21357918 57.6677742 C272.25400926 65.63830424 272.28428214 73.60879879 272.30374527 81.57940865 C272.31408848 85.67508138 272.32806963 89.7706679 272.35099983 93.86629105 C272.59417235 138.50697705 266.92760365 176.33552037 234.73967171 209.64265823 C220.27885947 224.22099823 201.98687721 234.65575684 182.51481819 240.9663887 C177.15445495 242.79820988 173.77546479 245.55359236 170.82512093 250.38142776 C169.68677618 255.39014463 170.49503159 260.06316573 172.13762093 264.88142776 C176.77271663 269.93789581 183.58932224 271.94460009 189.90934944 274.21101761 C222.50779162 285.91822223 246.62613461 310.7282452 261.60246468 341.53377151 C269.98715502 360.41470013 272.38037166 379.90355892 272.49528694 400.35847855 C272.50693042 401.80128565 272.52757153 403.24404575 272.55681038 404.68660355 C272.59944757 406.80131307 272.61563111 408.91477985 272.62590218 411.02986526 C272.64777596 412.89650833 272.64777596 412.89650833 272.67009163 414.80086136 C272.1163916 418.72479682 270.95949221 420.34536015 268.20012093 423.13142776 C265.56504732 424.40646338 264.47573953 424.20537422 261.63762093 423.44392776 C258.76234294 421.89570116 257.79838807 420.98441729 256.20012093 418.13142776 C255.93283145 415.25982191 255.82947239 412.59748441 255.86418343 409.72908401 C255.85601393 408.02676758 255.84677764 406.32445601 255.83659554 404.62215042 C255.8357798 403.73489273 255.83496407 402.84763504 255.83412361 401.93349075 C255.7198531 367.16039454 246.94245705 337.77246741 221.71232796 312.64998245 C208.37645808 299.98328053 192.44666166 292.21811211 175.28996468 286.09236526 C165.17326618 282.33865813 159.76999571 276.4730077 155.09465218 266.85799026 C152.43490939 258.75100134 153.13388884 249.24407942 156.70012093 241.56892776 C163.14391055 230.5095865 172.13346442 227.06637445 183.74308968 222.84236526 C212.62086627 211.94853595 233.90752699 191.15035211 247.01652718 163.38142776 C261.36600875 130.00719494 255.7376341 92.28042621 256.20012093 57.13142776 C182.94012093 57.13142776 109.68012093 57.13142776 34.20012093 57.13142776 C31.60954479 108.84964112 31.60954479 108.84964112 42.88762093 162.00642776 C43.23010872 162.78195999 43.57259651 163.55749222 43.92546272 164.35652542 C56.8682442 192.7597975 79.83240156 212.89956824 108.82121468 223.90486526 C110.91572108 224.6651832 113.01178922 225.42123148 115.11027718 226.17049026 C125.23225622 229.9261567 130.28685054 235.55219926 135.20012093 245.13142776 C137.92963546 253.31997138 136.82408218 262.80784856 133.52043343 270.66267776 C128.1469069 280.71021849 120.07176918 284.8631178 109.63762093 288.44392776 C96.50655076 292.99093265 84.91024254 299.19885772 74.20012093 308.13142776 C72.79826546 309.28771683 72.79826546 309.28771683 71.36808968 310.46736526 C57.3520161 322.58195753 47.06740288 338.35297757 40.82512093 355.75642776 C40.59856819 356.38774612 40.37201546 357.01906448 40.13859749 357.6695137 C35.8139479 370.57843014 34.73931156 382.86514264 34.68840218 396.34236526 C34.67151259 398.04872771 34.65335679 399.75507804 34.63400459 401.46141434 C34.58696218 405.90323979 34.55685932 410.34501614 34.53056526 414.78700638 C34.49522324 420.14300607 34.4383439 425.49881719 34.38517189 430.85466385 C34.30719609 438.94689276 34.25618489 447.03888406 34.20012093 455.13142776 C52.35012093 455.13142776 70.50012093 455.13142776 89.20012093 455.13142776 C89.53012093 452.82142776 89.86012093 450.51142776 90.20012093 448.13142776 C94.40524931 432.48654153 103.70696069 421.56732461 117.06730843 412.92830276 C123.5102708 409.23283806 129.90976022 407.30427943 137.20012093 406.13142776 C137.21413948 404.75422562 137.21413948 404.75422562 137.22844124 403.3492012 C137.27252024 399.93437499 137.33415825 396.52079668 137.40764046 393.10652542 C137.43582181 391.6304058 137.45705058 390.15413608 137.47111702 388.67781448 C137.4925879 386.5521972 137.53925135 384.42837898 137.59074593 382.30330276 C137.61169319 381.02551956 137.63264046 379.74773636 137.65422249 378.43123245 C138.28563652 374.61450972 139.11892107 373.40068037 142.20012093 371.13142776 C145.20012093 370.63142776 145.20012093 370.63142776 148.20012093 371.13142776 C151.28132079 373.40068037 152.11460533 374.61450972 152.74601936 378.43123245 C152.76696663 379.70901566 152.78791389 380.98679886 152.80949593 382.30330276 C152.82603218 382.98572037 152.84256844 383.66813797 152.85960579 384.37123489 C152.90801931 386.5413913 152.92943957 388.71084748 152.95012093 390.88142776 C152.97828654 392.35672329 153.00821482 393.83198628 153.03996468 395.30720901 C153.11377317 398.91512975 153.16338986 402.52291748 153.20012093 406.13142776 C154.40023811 406.41759964 155.6003553 406.70377151 156.83683968 406.99861526 C170.96284669 410.54642701 183.7172903 418.08723997 192.20012093 430.13142776 C201.20012093 445.94368073 201.20012093 445.94368073 201.20012093 455.13142776 C219.35012093 455.13142776 237.50012093 455.13142776 256.20012093 455.13142776 C256.20012093 451.50142776 256.20012093 447.87142776 256.20012093 444.13142776 C258.26262093 440.94392776 258.26262093 440.94392776 261.20012093 439.13142776 C267.04785755 438.3248434 267.04785755 438.3248434 270.07512093 440.44392776 C272.44087697 443.99256182 272.30702774 447.18909368 272.26262093 451.31892776 C272.25359749 452.40560745 272.24457405 453.49228714 272.23527718 454.61189651 C272.21787483 455.85906448 272.21787483 455.85906448 272.20012093 457.13142776 C272.91426155 457.22552933 273.62840218 457.31963089 274.36418343 457.41658401 C282.78104495 459.53818961 289.30158795 466.60333678 293.83293343 473.68220901 C298.29501044 481.67570127 299.33910628 489.67172915 299.45012093 498.75642776 C299.47590218 500.02744339 299.50168343 501.29845901 299.52824593 502.60799026 C299.15421288 506.62439269 298.069684 509.26186469 295.20012093 512.13142776 C293.60267261 512.23117318 292.00079971 512.26066149 290.40024185 512.26285553 C289.35508223 512.26669667 288.3099226 512.27053782 287.23309147 512.27449536 C286.07076619 512.27362888 284.9084409 512.2727624 283.71089363 512.27186966 C281.87518848 512.27632634 281.87518848 512.27632634 280.00239837 512.28087306 C276.58996199 512.28807681 273.17757593 512.29073419 269.76513553 512.29147053 C266.09089066 512.2933162 262.41665682 512.30086105 258.74241829 512.30760574 C250.70121172 512.32120954 242.66001013 512.32721695 234.61879396 512.3316164 C229.60168063 512.33437535 224.58456923 512.33861205 219.5674572 512.34312057 C205.68763856 512.35531587 191.80782147 512.3656147 177.92799759 512.36899567 C176.59450724 512.36932502 176.59450724 512.36932502 175.23407768 512.36966102 C174.34290777 512.3698793 173.45173785 512.37009757 172.53356278 512.37032247 C170.72759128 512.37076594 168.92161977 512.3712125 167.11564827 512.37166214 C166.21981627 512.37188357 165.32398427 512.372105 164.40100585 512.37233314 C149.87925453 512.37628271 135.35755335 512.3937404 120.83582141 512.41702166 C105.9410798 512.44070899 91.04636338 512.45319632 76.15160263 512.45436358 C67.78288156 512.45528182 59.41422581 512.46107131 51.04552269 512.4791832 C43.9203826 512.49454891 36.79532799 512.49972563 29.67017449 512.49144509 C26.03235279 512.487526 22.39470342 512.48852904 18.75690269 512.50250244 C14.81896491 512.51749089 10.88127248 512.50941217 6.94331551 512.49892044 C5.78545166 512.50697685 4.62758782 512.51503325 3.43463719 512.52333379 C2.38426207 512.51674394 1.33388695 512.5101541 0.25168228 512.50336456 C-1.11278906 512.5042602 -1.11278906 512.5042602 -2.50482547 512.50517392 C-5.28140691 512.05301165 -6.13063043 511.35961511 -7.79987907 509.13142776 C-11.21532685 498.88508443 -9.03520122 485.54915139 -4.54987907 475.94392776 C-0.28821885 468.02764613 5.14576421 462.30568568 13.20012093 458.13142776 C14.86116339 457.77111287 16.52764258 457.43425623 18.20012093 457.13142776 C18.1956797 456.27968475 18.19123848 455.42794174 18.18666267 454.55038834 C18.1462651 446.44710117 18.11597571 438.34384876 18.09649658 430.24048328 C18.08614493 426.07640151 18.0721474 421.91240427 18.04924202 417.74837112 C18.02720093 413.715327 18.0154879 409.68236318 18.01036644 405.64926338 C18.00672585 404.12541251 17.99962075 402.60156506 17.98866081 401.07774925 C17.72749507 363.19255421 29.10767406 330.09636359 55.66057014 302.6201973 C70.12138238 288.0418573 88.41336464 277.60709869 107.88542366 271.29646683 C113.2457869 269.46464565 116.62477706 266.70926317 119.57512093 261.88142776 C120.71346567 256.8727109 119.90521026 252.1996898 118.26262093 247.38142776 C113.62752522 242.32495972 106.81091961 240.31825544 100.49089241 238.05183792 C67.89245023 226.3446333 43.77410724 201.53461033 28.79777718 170.72908401 C20.0205825 150.96430089 18.02731845 130.87275965 18.10246468 109.52595901 C18.10433401 107.94984355 18.10575547 106.3737275 18.1067524 104.79761124 C18.11053705 100.68612893 18.12033184 96.57468299 18.13145638 92.46321487 C18.14175849 88.2530148 18.14626871 84.04280874 18.1512928 79.83259964 C18.1619585 71.59885915 18.1789851 63.36514801 18.20012093 55.13142776 C17.09926155 54.83357376 15.99840218 54.53571976 14.86418343 54.22883987 C5.8816617 51.53851237 0.30732261 44.60044591 -4.42487907 36.84236526 C-8.2228694 29.35428207 -8.94837486 21.81285588 -9.04987907 13.50642776 C-9.07566032 12.23541214 -9.10144157 10.96439651 -9.12800407 9.65486526 C-8.51394149 3.06100276 -6.40321725 0.00877752 0 0 Z " fill="#010101" transform="translate(110.79987907409668,-0.13142776489257813)"/>
<path d="M0 0 C6.91468538 4.92134849 12.28868746 10.86606238 15 19 C16.0490108 36.8130104 13.03571838 52.10306771 5 68 C4.46375 69.06089844 3.9275 70.12179688 3.375 71.21484375 C-8.33746119 92.64076434 -28.21344735 108.71969508 -51.4375 116.1875 C-58.85772304 118.35136669 -66.23583159 120.16637504 -74 120 C-73.94199219 121.18078125 -73.88398438 122.3615625 -73.82421875 123.578125 C-73.77731357 125.13537711 -73.73181421 126.69267201 -73.6875 128.25 C-73.64560547 129.02730469 -73.60371094 129.80460938 -73.56054688 130.60546875 C-73.43705047 136.38510043 -73.43705047 136.38510043 -76.328125 139.54296875 C-79 141 -79 141 -82.0625 141.0625 C-85.81814489 139.70407525 -86.88438922 138.37415109 -89 135 C-89.28614917 132.23866047 -89.38589883 129.91854388 -89.25 127.1875 C-89.23195313 126.49462891 -89.21390625 125.80175781 -89.1953125 125.08789062 C-89.14851064 123.39132336 -89.07677624 121.69547524 -89 120 C-89.62003906 119.97421875 -90.24007812 119.9484375 -90.87890625 119.921875 C-115.62542423 118.33694517 -137.23805954 105.85214365 -153.95703125 87.8984375 C-156.72963797 84.53494738 -157.92276469 82.66201697 -158.4375 78.25 C-158 75 -158 75 -157.2890625 73.1796875 C-156.84395433 69.82333128 -158.3511195 67.80314904 -159.9375 64.875 C-163 59.16856492 -163 59.16856492 -163 57 C-163.886875 57.103125 -164.77375 57.20625 -165.6875 57.3125 C-170.12180284 56.89416954 -171.17642836 55.36445062 -174 52 C-176.94213928 44.49905105 -177.28094662 36.28935207 -177.375 28.3125 C-177.38893799 27.53430908 -177.40287598 26.75611816 -177.41723633 25.9543457 C-177.37162212 20.57720031 -177.37162212 20.57720031 -175.71484375 18.00390625 C-172.66778322 16.22009177 -169.37965333 16.51066795 -166 17 C-163.99074195 17.98126556 -161.99242489 18.9849911 -160 20 C-151.61624497 23.05113708 -143.26809012 23.31043842 -134.4375 23.375 C-133.39746826 23.38877686 -132.35743652 23.40255371 -131.28588867 23.41674805 C-111.14950369 23.2978979 -95.07334975 13.68402035 -78.42919922 3.48535156 C-51.7505892 -12.82747892 -28.02819689 -17.2165312 0 0 Z " fill="#FDC56C" transform="translate(337,96)"/>
<path d="M0 0 C1.46802025 -0.00679667 1.46802025 -0.00679667 2.96569747 -0.01373065 C6.24823156 -0.02640054 9.53060028 -0.02475259 12.81315613 -0.02310181 C15.16541762 -0.02908544 17.51767715 -0.0358906 19.86993408 -0.04345703 C26.26254374 -0.06114117 32.65509988 -0.06581344 39.04773164 -0.0670886 C43.71088698 -0.06824262 48.37403326 -0.07454558 53.03718429 -0.08076156 C65.57833356 -0.09737025 78.11945443 -0.10484624 90.66061429 -0.10342209 C91.37256442 -0.10334218 92.08451456 -0.10326227 92.81803894 -0.10317993 C93.88727127 -0.10305729 93.88727127 -0.10305729 94.97810426 -0.10293217 C106.5281207 -0.10211942 118.07800668 -0.12125485 129.6279854 -0.14945666 C141.49332182 -0.17819939 153.35859466 -0.19199619 165.22396678 -0.19026911 C171.88309279 -0.18960567 178.54209856 -0.19546766 185.20119667 -0.21662521 C191.46472111 -0.23598222 197.72795672 -0.23614914 203.99149132 -0.22159195 C206.28925879 -0.21949961 208.58704423 -0.22422992 210.88478088 -0.23631287 C214.02403152 -0.25175066 217.16228449 -0.2424661 220.30151367 -0.22705078 C221.20862793 -0.23733791 222.11574219 -0.24762503 223.05034477 -0.25822389 C230.39432271 -0.1786502 235.53175704 1.84106054 241.0912323 6.64242554 C247.33090587 13.9220447 248.3412323 17.34065628 248.3412323 27.26742554 C157.2612323 27.26742554 66.1812323 27.26742554 -27.6587677 27.26742554 C-27.6587677 18.69363106 -27.37992023 14.95194198 -22.6587677 8.26742554 C-15.78674008 1.54780176 -9.34544424 -0.03167492 0 0 Z " fill="#BA6F69" transform="translate(145.6587677001953,469.7325744628906)"/>
<path d="M0 0 C91.08 0 182.16 0 276 0 C276 8.64385214 275.11482331 13.41795319 269.5 19.875 C268.675 20.57625 267.85 21.2775 267 22 C266.360625 22.556875 265.72125 23.11375 265.0625 23.6875 C259.3972568 27.29265476 253.73979988 27.28955617 247.25894165 27.26742554 C245.7957651 27.27422221 245.7957651 27.27422221 244.30302942 27.28115618 C241.03742055 27.29380728 237.77197831 27.29217934 234.50634766 27.29052734 C232.16379075 27.2965121 229.82123581 27.30331752 227.47868347 27.31088257 C221.11712371 27.32855403 214.75561775 27.33323841 208.39403582 27.33451414 C203.75274298 27.33617401 199.11146213 27.34197298 194.47017353 27.3481871 C181.98732967 27.36479117 169.50451431 27.37227226 157.02165981 27.37084763 C156.31326207 27.37076772 155.60486433 27.3706878 154.875 27.37060547 C153.81110184 27.37048283 153.81110184 27.37048283 152.72571079 27.37035771 C141.23072316 27.36954478 129.73586654 27.38868589 118.2409168 27.4168822 C106.42978927 27.44562486 94.61872562 27.45942177 82.80756223 27.45769465 C76.17975002 27.45703127 69.55205862 27.46289087 62.92427444 27.48405075 C56.69110501 27.50340759 50.4582258 27.5035748 44.22504616 27.48901749 C41.93856571 27.48692522 39.65206722 27.49165506 37.36561775 27.5037384 C34.2417457 27.51917698 31.11887614 27.50989119 27.99502563 27.49447632 C27.09248444 27.50476344 26.18994325 27.51505057 25.26005232 27.52564943 C17.87317595 27.44522245 12.71393283 25.41238474 7.1875 20.5 C0.89549786 13.30914041 0 10.13871472 0 0 Z " fill="#BA6F69" transform="translate(118,15)"/>
<path d="M0 0 C6.91468538 4.92134849 12.28868746 10.86606238 15 19 C16.0490108 36.8130104 13.03571838 52.10306771 5 68 C4.46375 69.06089844 3.9275 70.12179688 3.375 71.21484375 C-8.33746119 92.64076434 -28.21344735 108.71969508 -51.4375 116.1875 C-58.85772304 118.35136669 -66.23583159 120.16637504 -74 120 C-73.94199219 121.18078125 -73.88398438 122.3615625 -73.82421875 123.578125 C-73.77731357 125.13537711 -73.73181421 126.69267201 -73.6875 128.25 C-73.64560547 129.02730469 -73.60371094 129.80460938 -73.56054688 130.60546875 C-73.43705047 136.38510043 -73.43705047 136.38510043 -76.328125 139.54296875 C-79 141 -79 141 -82.0625 141.0625 C-85.81814489 139.70407525 -86.88438922 138.37415109 -89 135 C-89.28614917 132.23866047 -89.38589883 129.91854388 -89.25 127.1875 C-89.23195313 126.49462891 -89.21390625 125.80175781 -89.1953125 125.08789062 C-89.14851064 123.39132336 -89.07677624 121.69547524 -89 120 C-89.62003906 119.97421875 -90.24007812 119.9484375 -90.87890625 119.921875 C-115.62542423 118.33694517 -137.23805954 105.85214365 -153.95703125 87.8984375 C-156.72785278 84.53711302 -157.91515619 82.57505247 -158.5625 78.1875 C-158 75 -158 75 -157 73.0625 C-153.78657777 71.35536944 -150.50712223 71.36299381 -147 72 C-144.3046875 74.2734375 -144.3046875 74.2734375 -141.875 77.375 C-129.57004691 92.04645769 -110.85512336 102.49403075 -91.67138672 104.31616211 C-88.19116553 104.472086 -84.73361309 104.51915652 -81.25 104.5 C-80.01862305 104.49355469 -78.78724609 104.48710937 -77.51855469 104.48046875 C-67.73943716 104.28462872 -59.94483557 102.99062305 -51 99 C-50.01217529 98.58186035 -50.01217529 98.58186035 -49.00439453 98.15527344 C-28.36179776 89.33147941 -14.94010805 74.59708011 -6 54 C-1.82875535 43.26126378 2.10186482 29.75466206 -2.375 18.5625 C-8.71793754 12.37058478 -16.73855287 8.92241667 -25 6 C-26.7015625 5.38125 -26.7015625 5.38125 -28.4375 4.75 C-46.27519195 0.99469643 -60.05840081 10.49870232 -74.57080078 19.50292969 C-93.94281958 31.44154469 -112.40088863 39.5950179 -135.625 39.375 C-137.47351563 39.39240234 -137.47351563 39.39240234 -139.359375 39.41015625 C-147.02941324 39.38572938 -153.72784008 38.46016815 -161 36 C-160.8460376 36.6189917 -160.6920752 37.2379834 -160.53344727 37.87573242 C-159.37318984 42.63199137 -158.3394701 47.09320648 -159 52 C-161.28591655 55.06965937 -162.75502329 56.68875582 -166.5 57.625 C-170.12872443 56.71781889 -171.57956377 54.80524326 -174 52 C-176.94213928 44.49905105 -177.28094662 36.28935207 -177.375 28.3125 C-177.38893799 27.53430908 -177.40287598 26.75611816 -177.41723633 25.9543457 C-177.37162212 20.57720031 -177.37162212 20.57720031 -175.71484375 18.00390625 C-172.66778322 16.22009177 -169.37965333 16.51066795 -166 17 C-163.99074195 17.98126556 -161.99242489 18.9849911 -160 20 C-151.61624497 23.05113708 -143.26809012 23.31043842 -134.4375 23.375 C-133.39746826 23.38877686 -132.35743652 23.40255371 -131.28588867 23.41674805 C-111.14950369 23.2978979 -95.07334975 13.68402035 -78.42919922 3.48535156 C-51.7505892 -12.82747892 -28.02819689 -17.2165312 0 0 Z " fill="#040403" transform="translate(337,96)"/>
<path d="M0 0 C23.6236875 7.08710625 43.72042124 29.08945416 55.13867188 50.09472656 C57.79378729 55.2606062 60.00723851 60.54660482 62 66 C62.2671582 66.72703125 62.53431641 67.4540625 62.80957031 68.203125 C67.87638444 82.87672278 67.62236831 98.1475918 67.63647461 113.49072266 C67.64161575 114.3502504 67.6467569 115.20977814 67.65205383 116.09535217 C67.65987503 117.72509368 67.65489819 119.35496292 67.63517761 120.98460388 C67.65218563 124.18961372 67.78776841 126.588786 69.27099609 129.46264648 C71.13944718 131.36309371 71.13944718 131.36309371 75 132 C75 137.28 75 142.56 75 148 C73.02 148.99 71.04 149.98 69 151 C67.03927451 154.92145098 67.39693727 159.63369 67 164 C58.09 164 49.18 164 40 164 C39.9906543 161.54030762 39.98130859 159.08061523 39.97167969 156.54638672 C39.93758534 148.32811052 39.88186257 140.11007692 39.81609726 131.89199638 C39.77694761 126.91984809 39.74460266 121.94786831 39.72900391 116.97558594 C39.59650246 77.64258587 37.76628577 38.43738867 8.75 8.4375 C6.02745249 5.8075191 3.30914369 3.86139332 0 2 C0 1.34 0 0.68 0 0 Z " fill="#97EDFD" transform="translate(300,291)"/>
<path d="M0 0 C8.91 0 17.82 0 27 0 C27.0911109 9.58101194 27.16417646 19.16172656 27.20724869 28.74307728 C27.22794247 33.19420035 27.25591759 37.64500651 27.30175781 42.09594727 C27.34587753 46.40782884 27.36927311 50.71940963 27.37950897 55.03149986 C27.38678387 56.65979422 27.40098101 58.28807599 27.42292023 59.91623878 C27.62100647 75.25565164 25.70090701 90.70251032 19.3125 104.8125 C18.97001221 105.59254395 18.62752441 106.37258789 18.2746582 107.17626953 C7.3206019 131.3539853 -12.33701062 152.56565834 -37 163 C-37.66 162.67 -38.32 162.34 -39 162 C-37.85724609 161.01773438 -37.85724609 161.01773438 -36.69140625 160.015625 C-26.38607945 150.97856879 -16.92345806 140.54429355 -12.0625 127.48046875 C-10.96642148 124.92160897 -9.76044306 123.3358261 -7.9375 121.25 C6.3705044 103.32009491 12.81588284 80.7330143 11 58 C9.97604723 53.94710911 8.21131405 51.20435607 5.25474548 48.26477051 C1.77966775 44.80422642 -0.4277943 42.23432298 -0.79467773 37.23632812 C-0.79358576 35.50090736 -0.75499258 33.76520174 -0.68359375 32.03125 C-0.67368912 31.11033569 -0.66378448 30.18942139 -0.65357971 29.24060059 C-0.61467651 26.32538379 -0.52690758 23.41406054 -0.4375 20.5 C-0.4023547 18.51307557 -0.37042135 16.52609157 -0.34179688 14.5390625 C-0.27096384 9.69003555 -0.13399453 4.84932598 0 0 Z " fill="#96ECFC" transform="translate(340,57)"/>
<path d="M0 0 C7.33751084 6.03524269 11.99450944 13.40374918 14.796875 22.43359375 C14.796875 23.42359375 14.796875 24.41359375 14.796875 25.43359375 C-12.263125 25.43359375 -39.323125 25.43359375 -67.203125 25.43359375 C-65.51402502 15.29899389 -60.91462393 7.28262241 -53.203125 0.43359375 C-36.3708246 -11.29529642 -16.97551199 -12.06946863 0 0 Z " fill="#FBC46B" transform="translate(282.203125,429.56640625)"/>
<path d="M0 0 C19.14 0 38.28 0 58 0 C58 8.64385214 57.11482331 13.41795319 51.5 19.875 C50.675 20.57625 49.85 21.2775 49 22 C48.360625 22.556875 47.72125 23.11375 47.0625 23.6875 C41.37420706 27.30732278 35.71026115 27.28204178 29.20510864 27.24050903 C27.7334653 27.24307231 27.7334653 27.24307231 26.23209178 27.24568737 C22.94778484 27.24897909 19.66368263 27.23798366 16.37939453 27.22705078 C14.02385971 27.2264866 11.66832453 27.22680336 9.31278992 27.22793579 C2.91869026 27.22851003 -3.47533448 27.21674409 -9.86941671 27.20278788 C-15.87484674 27.19155841 -21.88027685 27.18954164 -27.88571538 27.18748413 C-39.77864209 27.18310965 -51.67154133 27.16980725 -63.56445312 27.15087891 C-75.1155585 27.13251371 -86.66665641 27.11836034 -98.21777344 27.10986328 C-98.93008904 27.10933783 -99.64240464 27.10881239 -100.37630557 27.10827102 C-103.94987474 27.10566089 -107.52344397 27.10313349 -111.09701324 27.10064721 C-140.73136037 27.0799224 -170.36567888 27.04455465 -200 27 C-200 26.67 -200 26.34 -200 26 C-199.02632162 26.00222061 -198.05264324 26.00444122 -197.04945946 26.00672913 C-173.36357303 26.05892 -149.67801367 26.06522474 -125.99210167 26.02334595 C-114.53774134 26.00415722 -103.08373839 25.99990794 -91.62939453 26.03076172 C-81.64636708 26.05761449 -71.66380254 26.05650469 -61.68079245 26.02174091 C-56.39410735 26.00430968 -51.10825158 26.00093258 -45.82160568 26.03103638 C-40.84552596 26.05893003 -35.87091835 26.04943704 -30.89492035 26.01126289 C-29.0688038 26.00384418 -27.24257277 26.0100874 -25.41656113 26.03101921 C-16.05736732 26.4872108 -16.05736732 26.4872108 -7.61818314 23.31054688 C-5.99347347 21.23516712 -4.96705512 19.44412349 -4 17 C-3.67338064 16.21238281 -3.34676128 15.42476562 -3.01024437 14.61328125 C-1.0903045 9.68177022 -0.67753395 5.4202716 0 0 Z " fill="#A35B5A" transform="translate(336,15)"/>
<path d="M0 0 C30.43837863 -0.09128067 60.87673866 -0.16205431 91.31522223 -0.20426132 C94.91001817 -0.20926405 98.50481384 -0.21444135 102.09960938 -0.21972656 C102.81525844 -0.2207758 103.5309075 -0.22182505 104.2682429 -0.22290608 C115.85089601 -0.24030401 127.43346959 -0.27183831 139.01607555 -0.30861118 C150.90383967 -0.34603768 162.79156218 -0.36823946 174.6793828 -0.37635398 C181.35536828 -0.38134652 188.03120907 -0.39383643 194.70713806 -0.42292023 C200.9910899 -0.45007451 207.27478718 -0.4584448 213.55879211 -0.45243073 C215.86462792 -0.45353094 218.17047226 -0.46148447 220.47625732 -0.4768219 C223.62669549 -0.49674939 226.77617497 -0.49192845 229.92663574 -0.48101807 C230.8371606 -0.49266943 231.74768546 -0.5043208 232.68580198 -0.51632524 C240.04463857 -0.44753286 245.17938868 1.5640175 250.75 6.375 C256.98967357 13.65461917 258 17.07323074 258 27 C241.83 27 225.66 27 209 27 C208.01 21.72 207.02 16.44 206 11 C203.26932956 6.65562027 203.26932956 6.65562027 200 3 C199.67 2.67 199.34 2.34 199 2 C196.43319443 1.88983686 193.89271577 1.84503753 191.32493591 1.84178162 C190.51145457 1.83684364 189.69797322 1.83190566 188.85984093 1.82681805 C186.11286162 1.81136518 183.36590582 1.80306148 180.61889648 1.79467773 C178.65818065 1.78510532 176.6974669 1.77509563 174.73675537 1.76467896 C169.39608915 1.7375548 164.05541401 1.71658604 158.71471667 1.69667697 C153.13995905 1.67486357 147.5652291 1.64745223 141.99049377 1.62062073 C131.42595915 1.5706308 120.86140921 1.52571543 110.29684454 1.48259836 C98.27284805 1.4332797 86.24887932 1.37834172 74.22490966 1.32291877 C49.48329899 1.20900206 24.74166171 1.10218423 0 1 C0 0.67 0 0.34 0 0 Z " fill="#A35B5A" transform="translate(136,470)"/>
<path d="M0 0 C2.15234375 1.40625 2.15234375 1.40625 4 4 C4.62320874 7.34107009 4.603668 10.60969388 4.5625 14 C4.58634766 14.90234375 4.61019531 15.8046875 4.63476562 16.734375 C4.62014648 23.32273476 4.62014648 23.32273476 1.625 26.59375 C-1.32506122 28.17413994 -2.71986944 28.67284729 -6 28 C-8.12109375 26.59375 -8.12109375 26.59375 -10 24 C-10.60147557 20.65889283 -10.55804997 17.38624802 -10.5 14 C-10.51546875 13.09765625 -10.5309375 12.1953125 -10.546875 11.265625 C-10.50811274 4.71480266 -10.50811274 4.71480266 -8.15625 1.40625 C-5.19429327 -0.52546091 -3.46850148 -0.57808358 0 0 Z " fill="#030303" transform="translate(259,279)"/>
<path d="M0 0 C0.99 0.33 1.98 0.66 3 1 C2.59007812 1.59167969 2.18015625 2.18335938 1.7578125 2.79296875 C1.21898437 3.58316406 0.68015625 4.37335938 0.125 5.1875 C-0.40867187 5.96480469 -0.94234375 6.74210938 -1.4921875 7.54296875 C-5.91119529 14.74389077 -6.08450615 22.77099914 -5 31 C-3.78712388 34.69460726 -2.12961998 37.76120294 0 41 C0.8971875 42.546875 0.8971875 42.546875 1.8125 44.125 C2.204375 44.74375 2.59625 45.3625 3 46 C-3.28974565 45.19020911 -6.90560739 41.63674685 -11 37 C-14.78860777 30.80320803 -16.12117403 24.17551379 -15 17 C-13.00746745 9.8216046 -7.72667775 5.43320034 -2 1 C-1.34 0.67 -0.68 0.34 0 0 Z " fill="#97EBFB" transform="translate(271,233)"/>
<path d="M0 0 C2.375 1.375 2.375 1.375 4 4 C4.75641665 8.64655944 4.88955418 12.56302787 2.375 16.625 C-0.72904866 18.42208081 -2.46656253 18.58890625 -6 18 C-8.375 16.625 -8.375 16.625 -10 14 C-10.75641665 9.35344056 -10.88955418 5.43697213 -8.375 1.375 C-5.27095134 -0.42208081 -3.53343747 -0.58890625 0 0 Z " fill="#050506" transform="translate(259,319)"/>
</svg>
